<svg enable-background="new 0 0 100 100" viewBox="0 0 100 125" xmlns="http://www.w3.org/2000/svg"><path d="m49.862 76.66c.011.002.022.002.033.004.036.006.069.021.106.021s.07-.016.106-.021c.011-.002.021-.002.033-.004s.022-.007.033-.01c.049-.012.099-.02.144-.04.009-.002.019-.003.027-.008l8.541-4.406c.368-.19.514-.643.323-1.011s-.643-.513-1.011-.323l-7.447 3.842v-50.643c0-.414-.336-.75-.75-.75s-.75.336-.75.75v50.643l-7.447-3.842c-.368-.189-.82-.045-1.011.323-.057.11-.083.228-.083.343 0 .272.148.534.406.668l8.541 4.406c.009.005.019.006.028.008.044.021.094.028.143.04.012.003.023.008.035.01z"/></svg>