<svg xmlns="http://www.w3.org/2000/svg" xmlns:xlink="http://www.w3.org/1999/xlink" version="1.1" x="0px" y="0px" viewBox="0 0 100 125" enable-background="new 0 0 100 100" xml:space="preserve"><path d="M49.862,76.66c0.011,0.002,0.022,0.002,0.033,0.004c0.036,0.006,0.069,0.021,0.106,0.021s0.07-0.016,0.106-0.021  c0.011-0.002,0.021-0.002,0.033-0.004c0.012-0.002,0.022-0.007,0.033-0.01c0.049-0.012,0.099-0.02,0.144-0.04  c0.009-0.002,0.019-0.003,0.027-0.008l8.541-4.406c0.368-0.19,0.514-0.643,0.323-1.011s-0.643-0.513-1.011-0.323l-7.447,3.842  V24.061c0-0.414-0.336-0.75-0.75-0.75s-0.75,0.336-0.75,0.75v50.643l-7.447-3.842c-0.368-0.189-0.82-0.045-1.011,0.323  c-0.057,0.11-0.083,0.228-0.083,0.343c0,0.272,0.148,0.534,0.406,0.668l8.541,4.406c0.009,0.005,0.019,0.006,0.028,0.008  c0.044,0.021,0.094,0.028,0.143,0.04C49.839,76.653,49.85,76.658,49.862,76.66z"/></svg>