<svg xmlns="http://www.w3.org/2000/svg" xmlns:xlink="http://www.w3.org/1999/xlink" version="1.1" x="0px" y="0px" viewBox="0 0 100 125" style="enable-background:new 0 0 100 100;" xml:space="preserve"><path d="M53.4,49.9l41-41.1C95,8.4,95,7.5,94.5,7c-0.5-0.5-1.3-0.5-1.8,0l-41,41.1L10.6,7c-0.5-0.5-1.3-0.5-1.8,0s-0.5,1.3,0,1.8  l41,41.1L8.8,91c-0.5,0.5-0.5,1.3,0,1.8c0.2,0.2,0.6,0.4,0.9,0.4s0.7-0.1,0.9-0.4l41-41.1l41,41.1c0.2,0.2,0.6,0.4,0.9,0.4  s0.7-0.1,0.9-0.4c0.5-0.5,0.5-1.3,0-1.8L53.4,49.9z"/></svg>