<svg xmlns="http://www.w3.org/2000/svg" xmlns:xlink="http://www.w3.org/1999/xlink" version="1.1" x="0px" y="0px" viewBox="0 0 91.566 113.40249999999999" enable-background="new 0 0 91.566 90.722" xml:space="preserve"><g><g><path fill="#000000" d="M89.442,67.336l-0.411,1.063c-6.984,13.6-19.359,21.945-37.012,22.313    c-8.252,0.17-16.115-1.948-21.251-4.25c-11.086-4.98-20.408-14.217-25.501-24.084c-7.303-14.146-8.621-33.824,6.566-48.522    c0.234,0-1.842,3.188-1.608,3.188l-0.418,1.36C-1.136,52.666,32.582,82.028,65.357,78.67    C73.234,77.862,83.279,73.549,89.442,67.336z"/><path fill="#000000" d="M90.738,24.566c-1.282,2.94-8.663,8.493-11.922,9.187c-12.906,2.748-21.173-3.372-25.501-10.335    c-0.645-1.041-1.835-3.882-2.047-4.604C49.589,13.104,50.361,4.47,55.37,0c-1.509,4.25-1.728,9.187-0.935,12.396    c0.482,1.941,1.948,5.327,3.414,7.459c2.671,3.882,4.363,4.824,7.792,6.885c1.544,0.928,3.202,1.672,3.917,1.877    C72.809,29.574,79.673,32.096,90.738,24.566z"/><path fill="#000000" d="M69.608,53.169c8.245,0.057,16.859-3.797,21.959-9.209c-4.463,11.327-17.383,18.609-34.709,16.292    C42.35,58.312,28.53,43.713,27.106,29.085c-1.041-10.647,2.671-17.001,8.784-24.707c-2.125,4.031-2.918,7.14-3.117,9.124    C30.45,36.53,51.169,53.049,69.608,53.169z"/></g></g><path d="M221.55,152.399"/></svg>