<svg enable-background="new 0 0 91.566 90.722" viewBox="0 0 91.566 113.4025" xmlns="http://www.w3.org/2000/svg"><path d="m89.442 67.336-.411 1.063c-6.984 13.6-19.359 21.945-37.012 22.313-8.252.17-16.115-1.948-21.251-4.25-11.086-4.98-20.408-14.217-25.501-24.084-7.303-14.146-8.621-33.824 6.566-48.522.234 0-1.842 3.188-1.608 3.188l-.418 1.36c-10.943 34.262 22.775 63.624 55.55 60.266 7.877-.808 17.922-5.121 24.085-11.334z"/><path d="m90.738 24.566c-1.282 2.94-8.663 8.493-11.922 9.187-12.906 2.748-21.173-3.372-25.501-10.335-.645-1.041-1.835-3.882-2.047-4.604-1.679-5.71-.907-14.344 4.102-18.814-1.509 4.25-1.728 9.187-.935 12.396.482 1.941 1.948 5.327 3.414 7.459 2.671 3.882 4.363 4.824 7.792 6.885 1.544.928 3.202 1.672 3.917 1.877 3.251.957 10.115 3.479 21.18-4.051z"/><path d="m69.608 53.169c8.245.057 16.859-3.797 21.959-9.209-4.463 11.327-17.383 18.609-34.709 16.292-14.508-1.94-28.328-16.539-29.752-31.167-1.041-10.647 2.671-17.001 8.784-24.707-2.125 4.031-2.918 7.14-3.117 9.124-2.323 23.028 18.396 39.547 36.835 39.667z"/></svg>