<svg enable-background="new 0 0 100 100" viewBox="0 0 100 125" xmlns="http://www.w3.org/2000/svg"><path d="m76.662 50.139c.002-.011.002-.022.004-.033.006-.036.021-.069.021-.106s-.016-.07-.021-.106c-.002-.011-.002-.021-.004-.033s-.007-.022-.01-.033c-.012-.049-.02-.099-.04-.144-.002-.009-.003-.019-.008-.027l-4.406-8.541c-.19-.368-.643-.513-1.011-.323s-.513.642-.323 1.01l3.842 7.447h-50.644c-.414 0-.75.336-.75.75s.336.75.75.75h50.644l-3.842 7.447c-.189.368-.045.82.323 1.011.11.057.228.083.343.083.272 0 .534-.148.668-.406l4.406-8.541c.005-.009.006-.019.008-.028.021-.044.028-.094.04-.143.003-.011.008-.022.01-.034z"/></svg>