<svg xmlns="http://www.w3.org/2000/svg" xmlns:xlink="http://www.w3.org/1999/xlink" version="1.1" x="0px" y="0px" viewBox="0 0 100 125" enable-background="new 0 0 100 100" xml:space="preserve"><path d="M76.662,50.139c0.002-0.011,0.002-0.022,0.004-0.033c0.006-0.036,0.021-0.069,0.021-0.106s-0.016-0.07-0.021-0.106  c-0.002-0.011-0.002-0.021-0.004-0.033c-0.002-0.012-0.007-0.022-0.01-0.033c-0.012-0.049-0.02-0.099-0.04-0.144  c-0.002-0.009-0.003-0.019-0.008-0.027l-4.406-8.541c-0.19-0.368-0.643-0.513-1.011-0.323c-0.368,0.19-0.513,0.642-0.323,1.01  l3.842,7.447H24.062c-0.414,0-0.75,0.336-0.75,0.75s0.336,0.75,0.75,0.75h50.644l-3.842,7.447c-0.189,0.368-0.045,0.82,0.323,1.011  c0.11,0.057,0.228,0.083,0.343,0.083c0.272,0,0.534-0.148,0.668-0.406l4.406-8.541c0.005-0.009,0.006-0.019,0.008-0.028  c0.021-0.044,0.028-0.094,0.04-0.143C76.655,50.162,76.66,50.151,76.662,50.139z"/><text x="0" y="115" fill="#000000" font-size="5px" font-weight="bold" font-family="'Helvetica Neue', Helvetica, Arial-Unicode, Arial, Sans-serif">Created by Sergey Demushkin</text><text x="0" y="120" fill="#000000" font-size="5px" font-weight="bold" font-family="'Helvetica Neue', Helvetica, Arial-Unicode, Arial, Sans-serif">from the Noun Project</text></svg>